<svg width="80" height="30" viewBox="0 0 80 30" fill="none" xmlns="http://www.w3.org/2000/svg">
<rect width="30" height="30" rx="8" fill="#9A4DFF"/>
<path d="M15 22V8M15 8L8 15M15 8L22 15" stroke="white" stroke-width="4" stroke-linecap="round" stroke-linejoin="round"/>
<path d="M50.6484 21.375H48.9766V7.26562H50.6484V21.375ZM49.4531 14.1875H46.9219V12.7734H49.4531V14.1875ZM44.7734 8.9375C44.7734 10.349 44.6198 11.625 44.3125 12.7656C44.0104 13.901 43.4714 14.9635 42.6953 15.9531C41.9193 16.9375 40.8464 17.8151 39.4766 18.5859L38.4766 17.3594C39.6589 16.6927 40.5885 15.9531 41.2656 15.1406C41.9479 14.3281 42.4271 13.4427 42.7031 12.4844C42.9792 11.5208 43.1172 10.4349 43.1172 9.22656V8.9375H44.7734ZM43.7109 10.3438H39.2734V8.9375H43.7109V10.3438ZM47.4609 20.7344H45.8438V7.58594H47.4609V20.7344ZM38.7734 13.875L38.5547 12.3828L43.0781 12.125V13.4141L38.7734 13.875ZM64.0391 21.375H62.2891V7.26562H64.0391V21.375ZM57.375 11.75C57.375 12.7552 57.2135 13.7214 56.8906 14.6484C56.5729 15.5755 56.112 16.3958 55.5078 17.1094C54.9036 17.8229 54.1927 18.3594 53.375 18.7188L52.4453 17.375C53.1745 17.0521 53.8047 16.5938 54.3359 16C54.8724 15.401 55.2812 14.7344 55.5625 14C55.8438 13.2604 55.9844 12.5104 55.9844 11.75V10.7969H57.375V11.75ZM57.7109 11.75C57.7109 12.4792 57.8542 13.2005 58.1406 13.9141C58.4271 14.6224 58.8438 15.2604 59.3906 15.8281C59.9375 16.3958 60.5781 16.8359 61.3125 17.1484L60.3672 18.4844C59.5495 18.1354 58.8359 17.6172 58.2266 16.9297C57.6224 16.2422 57.1562 15.4505 56.8281 14.5547C56.5 13.6536 56.3359 12.7188 56.3359 11.75V10.7969H57.7109V11.75ZM60.7656 11.0156H52.8828V9.625H60.7656V11.0156ZM57.7031 10.3672H55.9688V7.57031H57.7031V10.3672ZM78.9922 16.1797H66.1016V14.7969H78.9922V16.1797ZM73.4062 15.1953H71.6719V13.0312H73.4062V15.1953ZM77.375 21.375H75.6172V18.5469H67.5547V17.1719H77.375V21.375ZM77.5547 13.6016H67.75V12.2812H77.5547V13.6016ZM77.4531 8.96094H69.4922V12.9531H67.75V7.60938H77.4531V8.96094ZM77.1016 11.2344H68.9844V9.92969H77.1016V11.2344Z" fill="#1C0F24"/>
</svg>
