<svg width="501" height="237" viewBox="0 0 501 237" fill="none" xmlns="http://www.w3.org/2000/svg">
<rect x="0.5" width="500" height="237" rx="16" fill="#F1F3F6"/>
<path d="M156.582 113.527H151.572V109.924H156.582V113.527ZM141.395 116.533C143.844 116.533 145.883 116.486 147.512 116.393C149.152 116.299 150.816 116.117 152.504 115.848L152.943 119.311C151.221 119.615 149.516 119.82 147.828 119.926C146.152 120.031 144.008 120.084 141.395 120.084H139.232V116.533H141.395ZM151.414 107.744H143.521V118.572H139.232V104.141H151.414V107.744ZM150.219 113.738H142.238V110.311H150.219V113.738ZM165.441 121.332H161.17V102.207H165.441V121.332ZM159.078 121.121H154.824V102.734H159.078V121.121ZM165.441 133.883H143.592V122.58H165.441V133.883ZM148.057 130.279H160.994V126.131H148.057V130.279ZM195.623 106.479H171.629V103.121H195.623V106.479ZM195.43 114.037H171.857V110.662H195.43V114.037ZM180.26 112.859H175.777V104.422H180.26V112.859ZM191.475 112.859H186.975V104.422H191.475V112.859ZM198.26 119.223H169.08V115.707H198.26V119.223ZM194.691 128.961H176.867V131.984H172.455V125.902H190.262V124.268H172.438V121.051H194.691V128.961ZM195.535 134.006H172.455V130.719H195.535V134.006ZM226.912 124.074H222.465V102.207H226.912V124.074ZM204.676 117.219C208.18 117.195 211.033 117.119 213.236 116.99C215.439 116.861 217.619 116.609 219.775 116.234L220.232 119.768C218.053 120.166 215.838 120.436 213.588 120.576C211.338 120.717 208.367 120.793 204.676 120.805H201.863V117.219H204.676ZM216.646 114.037H206.275V118.836H201.863V110.68H212.217V107.797H201.828V104.193H216.646V114.037ZM217.543 123.02C217.543 124.895 217.057 126.605 216.084 128.152C215.123 129.699 213.717 130.988 211.865 132.02C210.014 133.062 207.799 133.766 205.221 134.129L203.516 130.701C205.719 130.408 207.588 129.881 209.123 129.119C210.67 128.357 211.824 127.443 212.586 126.377C213.348 125.311 213.729 124.191 213.729 123.02V122.439H217.543V123.02ZM218.422 123.02C218.422 124.191 218.791 125.311 219.529 126.377C220.279 127.432 221.428 128.346 222.975 129.119C224.521 129.881 226.391 130.408 228.582 130.701L226.965 134.129C224.375 133.742 222.148 133.033 220.285 132.002C218.434 130.982 217.021 129.705 216.049 128.17C215.076 126.623 214.59 124.906 214.59 123.02V122.439H218.422V123.02ZM263.633 112.701H256.109V109.062H263.633V112.701ZM250.695 107.691C250.695 109.918 250.367 111.975 249.711 113.861C249.055 115.736 248.064 117.377 246.74 118.783C245.428 120.178 243.793 121.232 241.836 121.947L239.41 118.396C241.133 117.822 242.562 116.99 243.699 115.9C244.848 114.811 245.697 113.568 246.248 112.174C246.799 110.779 247.074 109.285 247.074 107.691V104.211H250.695V107.691ZM251.592 107.727C251.592 109.168 251.855 110.539 252.383 111.84C252.91 113.129 253.719 114.289 254.809 115.32C255.91 116.34 257.281 117.131 258.922 117.693L256.479 121.174C254.627 120.471 253.068 119.457 251.803 118.133C250.549 116.797 249.605 115.244 248.973 113.475C248.34 111.705 248.023 109.789 248.023 107.727V104.211H251.592V107.727ZM266.586 125.902H262.121V102.277H266.586V125.902ZM267.271 133.689H245.281V130.068H267.271V133.689ZM249.816 132.037H245.281V123.424H249.816V132.037ZM274.021 116.885C276.635 116.873 278.756 116.82 280.385 116.727C282.025 116.633 283.66 116.439 285.289 116.146L285.729 119.768C283.959 120.061 282.225 120.266 280.525 120.383C278.838 120.488 276.67 120.541 274.021 120.541H271.859V116.885H274.021ZM284.498 107.973H276.148V118.871H271.859V104.369H284.498V107.973ZM284.199 114.02H274.865V110.627H284.199V114.02ZM298.227 121.771H293.955V102.277H298.227V121.771ZM295.168 113.668H289.982V110.082H295.168V113.668ZM291.178 121.561H287.029V102.822H291.178V121.561ZM298.227 134.234H293.779V126.693H276.113V123.107H298.227V134.234ZM327.09 134.234H322.66V102.207H327.09V134.234ZM331.836 118.449H326.105V114.775H331.836V118.449ZM320.48 110.609H301.689V107.006H320.48V110.609ZM311.164 112.385C312.723 112.385 314.123 112.713 315.365 113.369C316.607 114.014 317.58 114.916 318.283 116.076C318.998 117.236 319.355 118.549 319.355 120.014C319.355 121.479 318.998 122.791 318.283 123.951C317.58 125.111 316.607 126.02 315.365 126.676C314.123 127.32 312.723 127.643 311.164 127.643C309.605 127.643 308.205 127.32 306.963 126.676C305.721 126.02 304.748 125.111 304.045 123.951C303.342 122.791 302.99 121.479 302.99 120.014C302.99 118.549 303.342 117.236 304.045 116.076C304.748 114.916 305.721 114.014 306.963 113.369C308.205 112.713 309.605 112.385 311.164 112.385ZM311.164 116.041C310.426 116.041 309.758 116.205 309.16 116.533C308.574 116.85 308.111 117.312 307.771 117.922C307.443 118.52 307.279 119.217 307.279 120.014C307.279 120.822 307.443 121.525 307.771 122.123C308.111 122.721 308.574 123.184 309.16 123.512C309.758 123.828 310.426 123.986 311.164 123.986C311.926 123.986 312.6 123.828 313.186 123.512C313.771 123.184 314.223 122.721 314.539 122.123C314.867 121.525 315.031 120.822 315.031 120.014C315.031 119.217 314.867 118.52 314.539 117.922C314.223 117.312 313.771 116.85 313.186 116.533C312.6 116.205 311.926 116.041 311.164 116.041ZM313.396 108.377H308.932V102.717H313.396V108.377ZM359.855 134.234H355.303V102.207H359.855V134.234ZM350.275 105.582C350.275 109.016 349.812 112.133 348.887 114.934C347.973 117.723 346.42 120.289 344.229 122.633C342.037 124.965 339.102 127.004 335.422 128.75L333.066 125.164C336.148 123.711 338.621 122.076 340.484 120.26C342.348 118.443 343.701 116.404 344.545 114.143C345.389 111.881 345.811 109.291 345.811 106.373V105.582H350.275ZM347.867 109.115H334.771V105.582H347.867V109.115Z" fill="black"/>
</svg>
